Coordinates
version=1
nRows=10
nColumns=40
inDegrees=yes

Units are S.I. units (second, meters, Newtons, ...)
Angles are in degrees.

endheader
time	pelvis_tilt	pelvis_list	pelvis_rotation	pelvis_tx	pelvis_ty	pelvis_tz	hip_flexion_r	hip_adduction_r	hip_rotation_r	knee_angle_r	knee_angle_r_beta	ankle_angle_r	subtalar_angle_r	mtp_angle_r	hip_flexion_l	hip_adduction_l	hip_rotation_l	knee_angle_l	knee_angle_l_beta	ankle_angle_l	subtalar_angle_l	mtp_angle_l	lumbar_extension	lumbar_bending	lumbar_rotation	arm_flex_r	arm_add_r	arm_rot_r	elbow_flex_r	pro_sup_r	wrist_flex_r	wrist_dev_r	arm_flex_l	arm_add_l	arm_rot_l	elbow_flex_l	pro_sup_l	wrist_flex_l	wrist_dev_l
     57.76000000	     -5.29268756	     -4.96130537	     -4.87364462	      1.12318803	      0.93064328	      0.46319347	     25.15944263	     -2.43729070	    -10.64752316	     18.09610468	     18.09610468	      4.30921718	      0.59282451	      3.73527488	      9.01080707	     -8.14676947	    -10.78005604	     19.19821629	     19.19821629	     14.96245360	    -15.03028958	      1.85356216	    -11.69395609	      6.53279651	      0.87044671	      1.17382927	    -14.63106268	     -9.12367202	     37.96155791	     46.31579942	      0.00000000	      0.00000000	      1.62353908	    -15.98786990	      0.74667683	     63.59669504	     46.05460558	      0.00000000	      0.00000000
     57.77257143	     -5.21642697	     -4.93241088	     -4.79505580	      1.12421486	      0.92979164	      0.46560756	     24.15307825	     -2.12710914	    -11.63494019	     16.08078195	     16.08078195	      3.99230646	      2.26374954	      4.13709524	      8.42254882	     -8.25042588	    -10.84686793	     19.07442902	     19.07442902	     15.29344679	    -14.81828314	      1.56959082	    -11.64073793	      6.52298691	      0.87939035	      1.37904585	    -14.61775087	     -8.91233177	     38.24194365	     46.28891046	      0.00000000	      0.00000000	      1.54110415	    -15.89412534	      0.92605708	     63.49370065	     46.05244647	      0.00000000	      0.00000000
     57.78514286	     -5.25272271	     -4.70732166	     -4.76443870	      1.12525261	      0.92868029	      0.46811952	     23.57131116	     -1.99432020	    -12.22562361	     14.90555822	     14.90555822	      3.69981016	      3.19380624	      4.32450166	      8.00294797	     -8.15603203	    -10.93306838	     19.02995193	     19.02995193	     15.60313558	    -14.68902290	      1.37310890	    -11.41523432	      6.29693852	      0.91911210	      1.59865772	    -14.55206425	     -8.74396077	     38.44992358	     46.26936164	      0.00000000	      0.00000000	      1.47665437	    -15.69697655	      1.07707821	     63.38756543	     46.04758849	      0.00000000	      0.00000000
     57.79771429	     -5.12255613	     -4.76351640	     -4.67633843	      1.12664525	      0.92792856	      0.47088246	     22.72712150	     -1.63033036	    -13.15057776	     13.99280431	     13.99280431	      3.33934883	      4.32823940	      4.11104546	      7.28219808	     -8.35766082	    -10.94486489	     18.82964256	     18.82964256	     15.99024019	    -14.41764142	      1.25594678	    -11.37468132	      6.39619847	      1.00985006	      1.81948125	    -14.61520857	     -8.43858814	     38.68671455	     46.23890954	      0.00000000	      0.00000000	      1.38841903	    -15.63601155	      1.19509336	     63.07198530	     46.04845601	      0.00000000	      0.00000000
     57.81028571	     -5.20748046	     -4.63306666	     -4.62276917	      1.12783593	      0.92674493	      0.47382683	     22.53458701	     -1.45225386	    -13.35746737	     14.02177434	     14.02177434	      3.25334742	      4.28957658	      4.10346855	      6.94753382	     -8.39333826	    -10.90923392	     18.85781077	     18.85781077	     16.24743611	    -14.47553888	      1.17419991	    -11.03338079	      6.23900213	      1.14713046	      1.97225246	    -14.60834047	     -8.41582814	     38.75452594	     46.23572097	      0.00000000	      0.00000000	      1.31614911	    -15.56028987	      1.22177827	     63.04121700	     46.04628661	      0.00000000	      0.00000000
     57.82285714	     -4.96829769	     -4.71546010	     -4.54270634	      1.12945661	      0.92631166	      0.47682016	     21.63818560	     -1.12724437	    -14.13026909	     13.63742381	     13.63742381	      2.74355489	      5.15330294	      2.70401192	      6.09855814	     -8.64090507	    -11.00469865	     18.68008232	     18.68008232	     16.77959046	    -14.06531746	      1.44975739	    -11.10452644	      6.37860135	      1.21732267	      2.37889545	    -14.69311206	     -7.86872386	     39.02763734	     46.18998261	      0.00000000	      0.00000000	      1.22263328	    -15.24702601	      1.30406202	     62.28982822	     46.04897103	      0.00000000	      0.00000000
     57.83542857	     -4.92429593	     -4.78286293	     -4.48616258	      1.13080567	      0.92554798	      0.47997763	     21.34228397	     -0.84158081	    -14.29597256	     14.06253839	     14.06253839	      2.69135770	      5.01904880	      1.98916730	      5.65749228	     -8.91249818	    -10.94812035	     18.80876360	     18.80876360	     17.08963887	    -14.10669813	      1.58791867	    -10.94290967	      6.51010022	      1.42238788	      2.67724010	    -14.81357965	     -7.68182338	     39.14538469	     46.17465533	      0.00000000	      0.00000000	      1.05628341	    -14.93847354	      1.34917864	     62.03355850	     46.04783633	      0.00000000	      0.00000000
     57.84800000	     -4.91525981	     -4.71114843	     -4.40156573	      1.13204681	      0.92473642	      0.48316541	     21.04406238	     -0.71092738	    -14.30859566	     14.31894584	     14.31894584	      1.39185052	      4.46537291	     -2.78442084	      5.48970476	     -9.11103548	    -10.96486624	     19.40932010	     19.40932010	     18.16881950	    -13.63975568	      3.33640209	    -10.69139381	      6.46126574	      1.52067796	      2.98638543	    -15.16697897	     -6.08111985	     39.37073463	     46.06025892	      0.00000000	      0.00000000	      1.27753162	    -14.44008999	      0.74210185	     60.46568001	     46.13007293	      0.00000000	      0.00000000
     57.86057143	     -4.73845603	     -4.83652586	     -4.37001146	      1.13323768	      0.92460670	      0.48656600	     20.57772993	     -0.40070558	    -14.29368796	     14.76106583	     14.76106583	      1.63798360	      4.31379289	     -3.10313432	      5.05118356	     -9.48333681	    -10.88372673	     19.78180840	     19.78180840	     18.25400373	    -13.85739873	      3.40443795	    -10.76155855	      6.61593906	      1.75521307	      3.38751633	    -15.28634985	     -6.02899305	     39.50630980	     46.05368116	      0.00000000	      0.00000000	      1.02998707	    -14.20499023	      0.78499304	     60.39608517	     46.12791153	      0.00000000	      0.00000000
     57.87314286	     -4.65010362	     -4.92393078	     -4.27799955	      1.13407005	      0.92436917	      0.48991480	     20.38848457	     -0.19902221	    -14.22299734	     15.49533190	     15.49533190	      1.99453471	      3.91087560	     -3.72959432	      5.03606279	     -9.89276975	    -10.71854733	     20.68910287	     20.68910287	     18.39478542	    -14.11787121	      3.56937668	    -10.75514736	      6.71872267	      1.86058867	      3.89757720	    -15.42242013	     -5.85897734	     39.68010259	     46.03823436	      0.00000000	      0.00000000	      0.86301870	    -14.02022595	      0.64186347	     60.11703697	     46.14323885	      0.00000000	      0.00000000
